<svg xmlns="http://www.w3.org/2000/svg" xmlns:xlink="http://www.w3.org/1999/xlink" xmlns:lucid="lucid" width="2031" height="1445"><g transform="translate(3398 2180)" lucid:page-tab-id="0_0"><path d="M-3500-2500h13500v2000H-3500z" fill="#f2f3f5"/><path d="M-2420-2080h640v1220h-640z" stroke="#8c4fff" stroke-width="5" fill="#fff" fill-opacity="0"/><path d="M-2420-2080h56v56h-56v-56z" stroke="#fff" stroke-opacity="0" fill="#8c4fff"/><path d="M-2376.63-2050.55l-4.12-1.77v14.68c3.57-.48 4.12-4.16 4.12-4.3v-8.6zm-5.53 12.95v-14.72l-4.23 1.77v8.68c0 .07.63 3.86 4.24 4.27zm.43-16.45c.2-.07.4-.07.55.04l5.53 2.34c.27.1.43.37.43.63v9.16c-.24 2.02-1.88 5.7-6.35 5.7-4.32 0-5.96-3.68-6.24-5.6v-9.26c0-.26.2-.52.43-.63l5.64-2.4zm7.92.92l-7.65-3.38-7.77 3.26v9.97c0 .08-.04 4 2.36 6.48 1.25 1.33 3.05 2 5.3 2 2.26 0 4.03-.67 5.36-2 2.43-2.46 2.4-6.43 2.4-6.47v-9.86zm-1.42 17.3c-1.57 1.6-3.7 2.42-6.35 2.42-2.63 0-4.75-.82-6.3-2.44-2.84-2.87-2.72-7.28-2.72-7.47v-10.42c0-.3.17-.55.44-.62l8.43-3.57c.2-.1.4-.1.55 0l8.35 3.67c.27.1.43.37.43.62v10.33c0 .2.04 4.56-2.82 7.43zm-29.4-10.23h11.2v1.4h-11.2c-3.92 0-6.74-2.84-6.98-7.03v-.5c0-3.54 1.84-5.93 5.33-7 0-.3-.04-.66-.04-.88 0-4.1 2.23-7.66 5.64-9.05 4.62-1.88 9.84-1.25 12.74 1.54 1.06 1.04 1.88 2.18 2.47 3.5.86-.62 1.96-.9 3.3-.84 2.5.1 4.42 2.4 4.8 5.6 2.1.18 3.5 1.25 4.2 3.23l-1.3.47c-.58-1.62-1.67-2.36-3.56-2.36-.36 0-.67-.24-.67-.65-.2-3.24-2-4.82-3.57-4.9-1.33-.06-2.3.3-2.9 1.1-.16.2-.4.3-.67.27-.24-.04-.48-.22-.55-.44-.6-1.55-1.42-2.83-2.55-3.94-2.5-2.43-7.14-2.94-11.25-1.25-2.86 1.17-4.75 4.2-4.75 7.72 0 .37.04.95.08 1.32.04.37-.15.7-.5.78-3.22.8-4.87 2.72-4.87 5.77v.4c.2 3.5 2.4 5.74 5.58 5.74z" stroke="#fff" stroke-opacity="0" fill="#fff"/><use xlink:href="#a" transform="matrix(1,0,0,1,-2349,-2060) translate(0 30.138888888888893)"/><use xlink:href="#b" transform="matrix(1,0,0,1,-2349,-2060) translate(103.52647569444446 30.138888888888893)"/><use xlink:href="#c" transform="matrix(1,0,0,1,-2349,-2060) translate(213.87369791666669 30.138888888888893)"/><path d="M-1680-1625h140v140h-140v-140z" stroke="#000" stroke-opacity="0" fill="#008a0e"/><path d="M-1573.56-1549.9l.66-4.8c6.22 3.72 6.3 5.3 6.3 5.3s-1.12.87-6.96-.5zm-3.4-.98c-10.73-3.24-25.62-10.1-31.65-12.94v-.1c0-2.25-1.9-4.2-4.25-4.2s-4.24 1.95-4.24 4.2c0 2.35 1.9 4.22 4.25 4.22 1.04 0 1.98-.4 2.64-.98 7.15 3.33 21.94 10.1 32.78 13.32l-4.34 30.1v.28c0 2.65-11.77 7.45-30.9 7.45-19.4 0-31.28-4.8-31.28-7.45v-.3l-8.95-65.06c7.73 5.3 24.32 8.13 40.24 8.13 15.83 0 32.4-2.85 40.14-8.14l-4.43 31.46zm-76.87-38.32c.18-2.26 13.38-11.27 41.17-11.27 27.8 0 41 9 41.17 11.27v.78c-1.6 5.2-18.73 10.68-41.16 10.68-22.52 0-39.67-5.48-41.17-10.68v-.78zm85.83.1c0-6.08-17.43-14.9-44.66-14.9-27.23 0-44.66 8.82-44.66 14.9l.2 1.27 9.7 70.95c.18 7.94 21.38 10.88 34.76 10.88 16.58 0 34.2-3.82 34.4-10.88l4.23-29.6c2.36.6 4.24.9 5.75.9 2.07 0 3.48-.5 4.33-1.58.76-.78.94-1.76.76-2.84-.37-2.45-3.3-5.1-9.13-8.43l4.14-29.3.2-1.37z" stroke="#000" stroke-opacity="0" fill="#fff"/><use xlink:href="#d" transform="matrix(1,0,0,1,-1710,-1476) translate(16.062282986111114 30.138888888888893)"/><use xlink:href="#e" transform="matrix(1,0,0,1,-1710,-1476) translate(144.76019965277777 30.138888888888893)"/><path d="M-2322.75-1080h140.5v140.5h-140.5V-1080z" stroke="#000" stroke-opacity="0" fill="#e7157b"/><path d="M-2287.38-989.46c-1.76-2.9-3.06-6.06-4-9.37l3.35-.9c.84 3 2.05 5.83 3.63 8.5l-2.97 1.77zm-.65-30.38l-3.34-.96c.93-3.24 2.23-6.3 3.9-9.22l2.98 1.78c-1.48 2.6-2.7 5.42-3.53 8.4zm20.37-23.67l-1.4-3.16c5.22-2.34 10.8-3.55 16.57-3.55 5.68 0 11.26 1.2 16.47 3.54l-1.4 3.15c-4.74-2.1-9.86-3.24-15.06-3.24-5.3 0-10.32 1.13-15.16 3.23zm50.05 13.48c1.66 2.9 2.96 5.98 3.9 9.22l-3.36.96c-.83-2.98-2.04-5.8-3.53-8.4l3-1.78zm.55 30.3l3.34.9c-.94 3.22-2.24 6.3-3.9 9.2l-3-1.78c1.5-2.58 2.7-5.4 3.55-8.32zm-20.38 23.6l1.4 3.14c-5.2 2.35-10.8 3.56-16.46 3.56-5.76 0-11.34-1.2-16.55-3.56l1.4-3.15c4.83 2.1 9.85 3.24 15.16 3.24 5.22 0 10.33-1.13 15.07-3.23zm-41.4-.33c-2.96 0-5.3-2.34-5.3-5.25 0-2.9 2.34-5.25 5.3-5.25 2.9 0 5.22 2.34 5.22 5.25 0 2.9-2.33 5.25-5.22 5.25zm0-14.06c-4.82 0-8.82 3.95-8.82 8.8 0 4.85 4 8.8 8.83 8.8 4.84 0 8.75-3.95 8.75-8.8 0-4.85-3.9-8.8-8.75-8.8zm52.66 14.05c-2.98 0-5.3-2.34-5.3-5.25 0-2.9 2.32-5.25 5.3-5.25 2.88 0 5.2 2.34 5.2 5.25 0 2.9-2.32 5.25-5.2 5.25zm0-14.06c-4.84 0-8.84 3.95-8.84 8.8 0 4.85 4 8.8 8.83 8.8 4.84 0 8.74-3.95 8.74-8.8 0-4.85-3.9-8.8-8.74-8.8zm-68.46-19.32c0-2.9 2.33-5.25 5.2-5.25 2.98 0 5.3 2.35 5.3 5.25s-2.32 5.25-5.3 5.25c-2.88 0-5.2-2.34-5.2-5.25zm13.86 1.78h8.18l-2.22 2.26 2.42 2.5 5.3-5.24c.38-.33.56-.8.56-1.3 0-.4-.18-.9-.56-1.2l-5.2-5.34-2.52 2.5 2.24 2.27h-8.2c-.83-3.95-4.36-7.02-8.64-7.02-4.84 0-8.74 3.96-8.74 8.8 0 4.85 3.9 8.8 8.74 8.8 4.28 0 7.8-3.06 8.65-7.02zm66.88 3.47c-2.97 0-5.3-2.34-5.3-5.25 0-2.9 2.33-5.25 5.3-5.25 2.9 0 5.22 2.35 5.22 5.25s-2.33 5.25-5.2 5.25zm0-14.05c-4.83 0-8.83 3.96-8.83 8.8 0 4.85 4 8.8 8.84 8.8s8.75-3.95 8.75-8.8c0-4.84-3.9-8.8-8.74-8.8zm-64.92-24.56c2.9 0 5.2 2.34 5.2 5.25 0 2.9-2.3 5.25-5.2 5.25-2.97 0-5.3-2.34-5.3-5.25 0-2.9 2.33-5.25 5.3-5.25zm0 14.05c4.84 0 8.75-3.95 8.75-8.8 0-4.85-3.9-8.8-8.75-8.8-4.83 0-8.83 3.95-8.83 8.8 0 4.85 4 8.8 8.83 8.8zm52.65-14.05c2.88 0 5.2 2.34 5.2 5.25 0 2.9-2.32 5.25-5.2 5.25-2.98 0-5.3-2.34-5.3-5.25 0-2.9 2.32-5.25 5.3-5.25zm0 14.05c4.84 0 8.74-3.95 8.74-8.8 0-4.85-3.9-8.8-8.74-8.8s-8.84 3.95-8.84 8.8c0 4.85 4 8.8 8.83 8.8zm-8.1 23.2l2.8-2.1h-6.98v-3.56h6.98l-2.8-2.1 2.05-2.82 7.07 5.33c.47.33.65.82.65 1.38 0 .57-.18 1.05-.65 1.38l-7.07 5.33-2.04-2.84zm-8 6.45c-3.16-1.3-6.7-1.85-10.22-1.85-3.62 0-7.16.56-10.32 1.85 1.2-3.07 1.86-6.62 1.86-10.34 0-3.7-.65-7.27-1.86-10.34 6.33 2.5 14.23 2.5 20.56 0-1.2 3.07-1.86 6.63-1.86 10.34 0 3.72.65 7.27 1.86 10.34zm6.8 4.2c-3.26-3.14-5.12-8.64-5.12-14.54 0-5.9 1.87-11.4 5.13-14.54.28-.4.46-.8.46-1.3 0-.4-.2-.88-.47-1.2-.75-.65-1.86-.65-2.5 0-6.8 6.78-22.34 6.78-29.13 0-.65-.65-1.76-.65-2.5 0-.3.32-.47.8-.47 1.2 0 .5.18.9.46 1.3 3.25 3.15 5.1 8.64 5.1 14.54 0 5.9-1.85 11.4-5.1 14.55-.3.4-.47.8-.47 1.3 0 .4.18.88.46 1.2.74.73 1.85.73 2.5 0 6.8-6.8 22.33-6.8 29.12 0 .37.32.83.5 1.2.5.47 0 .94-.18 1.3-.5.3-.32.47-.8.47-1.2 0-.5-.2-.9-.47-1.3z" stroke="#000" stroke-opacity="0" fill="#fff"/><use xlink:href="#d" transform="matrix(1,0,0,1,-2352.753348214286,-930.4933035714284) translate(10.204861111111114 30.138888888888893)"/><use xlink:href="#f" transform="matrix(1,0,0,1,-2352.753348214286,-930.4933035714284) translate(138.90277777777777 30.138888888888893)"/><path d="M-1980-1420h137.9v137.9H-1980V-1420z" stroke="#000" stroke-opacity="0" fill="url(#g)"/><path d="M-1911.05-1376.47c7.97 0 21.54 1.6 21.54 7.97v35.48c0 5.8-11.2 8.45-21.55 8.45-10.34 0-21.53-2.66-21.53-8.45v-35.48c0-6.36 13.56-7.97 21.53-7.97zm0 24.1c10.92 0 17-2.85 17.27-4.08v-7.02c-4.64 2.18-12.14 2.94-17.27 2.94-5.12 0-12.6-.76-17.26-2.94v7.02c.27 1.23 6.44 4.08 17.25 4.08zm0 12.43c10.92 0 17-2.94 17.27-4.18v-7.02c-4.17 2.1-10.8 3.13-17.27 3.13-6.35 0-13-1.05-17.26-3.14v7.02c.27 1.23 6.44 4.18 17.25 4.18zm-26.47 18.5l-13.57 13.57h11.78v4.27h-16.98c-1.24 0-2.2-.95-2.2-2.2v-17.25h4.28v12.05l13.57-13.57zm73.92-74.86v17.26h-4.27v-12.05l-13.57 13.58-3.13-3.13 13.57-13.57h-11.77v-4.27h16.98c1.25 0 2.2.96 2.2 2.2zm-90.62 16.98h-4.27v-16.98c0-1.24.96-2.2 2.2-2.2h17.26v4.28h-12.05l13.58 13.57-3.13 3.13-13.57-13.57zm86.35 56.55h4.27v16.98c0 1.25-.95 2.2-2.2 2.2h-17.25v-4.27h12.05l-13.57-13.57 3.13-3.13 13.57 13.57zm-43.18-6.17c10.92 0 17-2.84 17.27-4.08v-5.8c-4.17 2.2-10.8 3.15-17.27 3.15-6.35 0-13-1.05-17.26-3.13v5.78c.27 1.24 6.34 4.08 17.25 4.08zm42.04-22.58c0-5.22-6.18-10.44-16.52-13.95l1.33-4.08c12.44 4.18 19.55 10.72 19.55 18.03 0 7.3-7.1 13.85-19.54 18.03l-1.32-4.07c10.34-3.5 16.5-8.73 16.5-13.95zm-83.98 0c0 5.03 5.8 10.06 15.46 13.57l-1.52 4.08c-11.57-4.18-18.3-10.63-18.3-17.65 0-7.02 6.73-13.47 18.3-17.65l1.52 4.08c-9.67 3.52-15.46 8.55-15.46 13.58zm41.93-20.68c-11 0-16.8 2.65-17.26 3.8.46.85 6.25 3.5 17.25 3.5 10.73 0 16.5-2.46 17.18-3.6-.67-1.14-6.45-3.7-17.18-3.7z" stroke="#000" stroke-opacity="0" fill="#fff"/><use xlink:href="#d" transform="matrix(1,0,0,1,-2010,-1273.089539098122) translate(3.43359375 30.138888888888893)"/><use xlink:href="#h" transform="matrix(1,0,0,1,-2010,-1273.089539098122) translate(132.13151041666666 30.138888888888893)"/><path d="M-2720.7-1911.43h131.4V-1780h-131.4v-131.43z" stroke="#000" stroke-opacity="0" fill="#dd344c"/><path d="M-2662.08-1846.9c.46.42.55 1.02.46 1.53l-1.66 7.77 7.45-4.6c.46-.27 1.2-.27 1.66 0l7.45 4.6-1.66-7.77c-.1-.6 0-1.1.46-1.54l6.63-6.5-8.64-1.28c-.55 0-1-.35-1.3-.86l-3.76-7.86-3.96 7.86c-.18.5-.64.86-1.2.94l-8.64 1.2 6.72 6.5zm-5.25 12.38l2.3-10.68-8.46-8.12c-.45-.42-.54-1.1-.36-1.7.18-.6.64-1.03 1.3-1.12l11.12-1.62 4.97-10.08c.27-.5.83-.94 1.47-.86.64 0 1.2.35 1.47.86l4.88 10.08 11.13 1.62c.55.1 1.1.52 1.3 1.1.17.6.08 1.2-.38 1.64l-8.37 8.2 2.2 10.6c.2.67-.1 1.36-.64 1.7-.56.43-1.3.43-1.85.1l-9.75-6.08-9.84 6.07c-.28.16-.56.24-.92.24-.28 0-.65-.08-.92-.34-.56-.34-.74-1.02-.65-1.62zm-30.36-42.38h85.4v-8.28h-85.4v8.28zm88.7-9.9v82.18c0 .85-.74 1.62-1.66 1.62h-9.84v-3.25h8.2v-67.4h-85.4v67.4h62.4v3.25h-64.04c-.92 0-1.66-.77-1.66-1.62v-82.2c0-.84.74-1.6 1.66-1.6h88.68c.92 0 1.66.76 1.66 1.62zm-72.3 72.27h9.83v-3.25h-9.84v3.25zm16.46 0h23v-3.25h-23v3.25zm-16.47-8.2h9.83v-3.25h-9.84v3.25zm16.46 0h36.15v-3.25h-36.14v3.25z" stroke="#000" stroke-opacity="0" fill="#fff"/><use xlink:href="#i" transform="matrix(1,0,0,1,-2750.714285714286,-1771) translate(19.308376736111086 30.138888888888893)"/><use xlink:href="#j" transform="matrix(1,0,0,1,-2750.714285714286,-1771) translate(-16.13975694444447 75.3107638888889)"/><path d="M-1680-1940h130v130h-130v-130z" stroke="#000" stroke-opacity="0" fill="#dd344c"/><path d="M-1595.65-1854.73h11.43v-3.26h-11.43v3.27zm-14.58 0h11.35v-3.26h-11.35v3.27zm-14.57 0h11.34v-3.26h-11.34v3.27zm17.8-12.97c0-1.83 1.5-3.26 3.23-3.26 1.82 0 3.3 1.43 3.3 3.26 0 1.75-1.48 3.2-3.3 3.2-1.74 0-3.23-1.45-3.23-3.2zm9.77 0c0-3.58-2.9-6.52-6.54-6.52-3.56 0-6.46 2.94-6.46 6.52 0 3.58 2.9 6.45 6.46 6.45 3.65 0 6.54-2.87 6.54-6.45zm-22.77-3.26c1.82 0 3.3 1.43 3.3 3.26 0 1.75-1.48 3.2-3.3 3.2-1.74 0-3.23-1.45-3.23-3.2 0-1.83 1.5-3.26 3.23-3.26zm0 9.7c3.64 0 6.54-2.86 6.54-6.44 0-3.58-2.9-6.52-6.54-6.52-3.56 0-6.46 2.94-6.46 6.52 0 3.58 2.9 6.45 6.46 6.45zm47.12-24.34v37.4c0 .87-.74 1.6-1.66 1.6h-50.26v-3.28h48.7v-34.05h-35.78v-3.26h37.34c.9 0 1.66.73 1.66 1.6zm-57.3 8.2c-.67.24-1.16.87-1.16 1.6v34.12l-3.9 3.34-4.22-4.85v-4.2c0-.5-.16-.88-.5-1.2l-3.72-3.74 3.72-3.66c.34-.32.5-.72.5-1.2v-3.26c0-.4-.16-.8-.5-1.1l-3.72-3.75 3.72-3.75c.34-.24.5-.72.5-1.1v-5.66c0-.73-.5-1.36-1.16-1.6-8.28-2.63-13.25-11.22-11.43-19.97 1.25-6.3 6.13-11.3 12.34-12.9 5.2-1.26 10.67-.15 14.82 3.1 4.14 3.27 6.54 8.2 6.54 13.46 0 7.4-4.9 14.07-11.85 16.3h.02zm15.07-16.3c0-6.3-2.83-12.1-7.8-16-4.88-3.9-11.34-5.25-17.64-3.66-7.37 1.83-13.16 7.8-14.74 15.35-2.07 9.94 3.32 19.8 12.6 23.3v3.9l-4.4 4.38c-.66.63-.66 1.67 0 2.3l4.4 4.38v1.9l-4.4 4.38c-.66.64-.66 1.68 0 2.3l4.4 4.4v4.2c0 .4.16.8.4 1.04l5.64 6.52c.33.4.82.56 1.24.56.4 0 .74-.16 1.08-.4l5.63-4.85c.42-.3.6-.8.6-1.26v-33.74c7.7-2.94 13-10.66 13-19zm-20.3 3.8c-2.24 0-4.06-1.74-4.06-4.05 0-2.23 1.82-4.06 4.06-4.06 2.23 0 4.06 1.82 4.06 4.05 0 2.3-1.83 4.06-4.06 4.06zm0-11.3c-4.06 0-7.3 3.27-7.3 7.25 0 4.06 3.24 7.32 7.3 7.32s7.3-3.26 7.3-7.32c0-3.98-3.24-7.24-7.3-7.24z" stroke="#000" stroke-opacity="0" fill="#fff"/><use xlink:href="#k" transform="matrix(1,0,0,1,-1710,-1801) translate(20.981987847222214 30.138888888888893)"/><use xlink:href="#l" transform="matrix(1,0,0,1,-1710,-1801) translate(100.05099826388889 30.138888888888893)"/><path d="M-2622-1439.6v-8.1h8.1v8.1h-8.1zm-23.55 0v-8.1h7.95v8.1h-7.95zm-26.85 0v-8.1h8.1v8.1h-8.1zm-23.7 0v-8.1h7.8v8.1h-7.8zm20.7-59.7v-19.95h40.8v19.95h-40.8zm64.8 44.7h-5.25v-11.4c0-1.95-1.5-3.45-3.3-3.45h-8.55V-1481c0-1.8-1.5-3.3-3.45-3.3h-20.4v-8.1h20.4c1.95 0 3.45-1.65 3.45-3.45v-26.85c0-1.95-1.5-3.45-3.45-3.45h-47.7c-1.95 0-3.45 1.5-3.45 3.45v26.85c0 1.8 1.5 3.45 3.45 3.45h20.4v8.1h-20.4c-1.95 0-3.45 1.5-3.45 3.3v11.55h-8.55c-1.8 0-3.3 1.5-3.3 3.45v11.4h-5.25c-1.95 0-3.45 1.65-3.45 3.45v15c0 1.8 1.5 3.3 3.45 3.3h14.55c1.95 0 3.45-1.5 3.45-3.3v-15c0-1.8-1.5-3.45-3.45-3.45h-2.55v-8.1h14.1v8.1h-2.55c-1.95 0-3.45 1.65-3.45 3.45v15c0 1.8 1.5 3.3 3.45 3.3h14.85c1.95 0 3.45-1.5 3.45-3.3v-15c0-1.8-1.5-3.45-3.45-3.45h-5.55v-11.4c0-1.95-1.5-3.45-3.3-3.45h-5.55v-8.1h40.8v8.1h-5.55c-1.8 0-3.3 1.5-3.3 3.45v11.4h-5.55c-1.95 0-3.45 1.65-3.45 3.45v15c0 1.8 1.5 3.3 3.45 3.3h14.85c1.95 0 3.45-1.5 3.45-3.3v-15c0-1.8-1.5-3.45-3.45-3.45h-2.55v-8.1h14.1v8.1h-2.85c-1.8 0-3.3 1.65-3.3 3.45v15c0 1.8 1.5 3.3 3.3 3.3h14.85c1.95 0 3.45-1.5 3.45-3.3v-15c0-1.8-1.5-3.45-3.45-3.45zm-44.4 47.85c-37.65 0-68.25-30.6-68.25-68.25s30.6-68.25 68.25-68.25 68.25 30.6 68.25 68.25-30.6 68.25-68.25 68.25zm0-143.25c-41.4 0-75 33.6-75 75s33.6 75 75 75 75-33.6 75-75-33.6-75-75-75zM-2980-1200h131.43v131.43H-2980V-1200z" stroke="#000" stroke-opacity="0" fill="#8c4fff"/><path d="M-2900.03-1133.18c-1.2-1.1-2.85-1.66-4.87-1.66h-.65l6.44-6.8v-2.5h-12.8v2.6h9.3l-6.63 7.16v2.12c1.02-.2 2.03-.2 3.04-.2 3.23 0 4.8 1.3 4.8 3.8 0 1.37-.37 2.38-1.3 3.02-.82.74-2.1 1.1-3.67 1.1-1.57 0-3.6-.36-5.8-1.1v2.5c1.93.8 3.86 1.27 5.8 1.27 2.48 0 4.5-.64 5.98-1.84 1.48-1.3 2.2-2.86 2.2-4.97 0-1.84-.63-3.4-1.83-4.5zm-18.2-.55c-1.3-1.2-3.05-1.75-5.35-1.75-.92 0-1.93.1-3.13.27l.45-6.35h8.84v-2.58h-11.5l-.66 9.38v2.03c2.03-.2 3.6-.28 4.88-.28 1.84 0 3.13.37 3.95 1 .74.66 1.2 1.76 1.2 3.23 0 1.38-.46 2.4-1.3 3.13-.82.74-2.1 1.1-3.67 1.1-1.65 0-3.68-.36-5.98-1.1v2.5c1.84.8 3.87 1.27 5.98 1.27 2.5 0 4.42-.64 5.9-1.93 1.46-1.3 2.3-2.94 2.3-4.97 0-2.1-.65-3.77-1.94-4.96zm23.63 23.1c-8 1.37-15 4.68-19.7 7.26-4.68-2.58-11.67-5.9-19.67-7.27-2.2-.46-13.34-2.76-13.34-9.2 0-3.04 1-4.97 3.1-8.56 2.4-4.23 5.53-9.57 5.53-17.1 0-5.44-1.47-10.68-4.23-15.56.28-.37.65-.83.92-1.2 4.23 2.03 8.56 3.13 12.97 3.13 5.33 0 10.3-1.47 14.7-4.23 4.43 2.76 9.4 4.23 14.73 4.23 4.42 0 8.74-1.1 12.98-3.12.28.36.65.82.93 1.2-2.76 4.87-4.24 10.1-4.24 15.54 0 7.53 3.12 12.87 5.5 17.1 2.13 3.6 3.14 5.52 3.14 8.56 0 6.44-11.13 8.74-13.34 9.2zm8-34.88c0-5.25 1.48-10.22 4.33-14.82.37-.55.37-1.38-.1-1.93-.82-1.02-1.74-2.03-2.57-3.13-.46-.65-1.38-.83-2.02-.46-4.05 2.3-8.28 3.4-12.6 3.4-5.16 0-9.67-1.38-13.8-4.23-.56-.37-1.3-.37-1.85 0-4.15 2.85-8.65 4.23-13.8 4.23-4.33 0-8.56-1.1-12.6-3.4-.65-.37-1.57-.2-2.03.46-.83 1.1-1.75 2.1-2.58 3.13-.47.55-.47 1.38-.1 1.93 2.85 4.6 4.32 9.57 4.32 14.8 0 6.73-2.85 11.6-5.06 15.47-2.2 3.86-3.6 6.34-3.6 10.2 0 8.84 12.34 11.78 16.1 12.43 8.02 1.47 15 4.78 19.43 7.36.26.18.54.27.8.27.3 0 .57-.08.84-.26 4.42-2.58 11.4-5.9 19.4-7.36 3.8-.65 16.1-3.6 16.1-12.42 0-3.87-1.37-6.35-3.57-10.2-2.2-3.88-5.06-8.75-5.06-15.47zm-6.34 44.33c-10.03 1.84-18.5 7.27-21.35 9.2-2.84-1.93-11.3-7.36-21.33-9.2-19.87-3.58-21.34-15.18-21.34-18.67 0-5.8 2.2-9.66 4.4-13.43 2.04-3.6 4.24-7.27 4.24-12.24 0-7.92-4.6-13.53-6.8-15.83 2.3-2.86 8.37-10.22 11.3-14 4.43 4.24 9.67 6.54 14.82 6.54 5.7 0 10.4-2.3 14.7-7.25 4.34 4.96 9.03 7.26 14.73 7.26 5.16 0 10.4-2.3 14.82-6.52 2.94 3.77 9 11.13 11.3 14-2.2 2.3-6.8 7.9-6.8 15.8 0 4.98 2.2 8.66 4.24 12.25 2.2 3.77 4.4 7.63 4.4 13.43 0 3.5-1.47 15.1-21.34 18.67zm19.78-33.76c-2.03-3.5-3.77-6.44-3.77-10.58 0-8.75 6.7-14.36 6.8-14.36.37-.28.56-.74.65-1.1 0-.47-.1-.93-.37-1.3-.18-.1-10.95-13.15-13.34-16.55-.36-.38-.73-.66-1.28-.66-.46 0-.92.2-1.3.55-4.13 4.4-9 6.8-13.8 6.8-5.23 0-9.37-2.3-13.42-7.54-.64-.83-1.93-.83-2.57 0-4.05 5.24-8.2 7.54-13.44 7.54-4.8 0-9.67-2.4-13.8-6.8-.37-.37-.83-.56-1.3-.56-.55 0-.9.28-1.28.65-2.4 3.4-13.25 16.45-13.34 16.55-.28.36-.37.82-.37 1.28.1.37.3.83.65 1.1.1 0 6.8 5.62 6.8 14.36 0 4.13-1.74 7.07-3.76 10.57-2.3 3.96-4.9 8.46-4.9 15.1 0 11.03 9.03 19.22 24.12 21.88 11.3 2.03 20.8 9.3 20.88 9.3.28.27.65.36 1 .36.38 0 .75-.08 1.03-.35.1 0 9.56-7.27 20.88-9.3 15.1-2.66 24.1-10.85 24.1-21.9 0-6.62-2.56-11.12-4.86-15.08z" stroke="#000" stroke-opacity="0" fill="#fff"/><use xlink:href="#m" transform="matrix(1,0,0,1,-3010,-1059.5714285714284) translate(30.245876736111114 30.138888888888893)"/><use xlink:href="#n" transform="matrix(1,0,0,1,-3010,-1059.5714285714284) translate(123.62478298611111 30.138888888888893)"/><use xlink:href="#o" transform="matrix(1,0,0,1,-3010,-1059.5714285714284) translate(63.07356770833333 75.3107638888889)"/><path d="M-1982.1-1960h140v140h-140v-140z" stroke="#000" stroke-opacity="0" fill="#e81313"/><path d="M-1934.83-1867.26h43.7v-43.7h-43.7v43.7zm47.24-43.7h6.97v3.42h-6.96v7.05h6.97v3.54h-6.96v5.2h6.97v3.52h-6.96v6.96h6.97v3.53h-6.96v6.96h6.97v3.54h-6.96v.3c0 1.75-1.46 3.22-3.22 3.22h-.3v6.96h-3.43v-6.96h-7.05v6.96h-3.53v-6.96h-5.2v6.96h-3.52v-6.96h-6.96v6.96h-3.54v-6.96h-6.96v6.96h-3.53v-6.96h-.3c-1.75 0-3.22-1.47-3.22-3.23v-.3h-5.2v-3.52h5.2v-6.95h-5.2v-3.53h5.2v-6.96h-5.2v-3.52h5.2v-5.2h-5.2v-3.53h5.2v-7.04h-5.2v-3.43h5.2v-.3c0-1.76 1.47-3.23 3.23-3.23h.3v-6.96h3.52v6.96h6.96v-6.96h3.53v6.96h6.95v-6.96h3.52v6.96h5.2v-6.96h3.53v6.96h7.05v-6.96h3.43v6.96h.3c1.76 0 3.23 1.47 3.23 3.23v.3zm-22.73 66.24c0 .1-.1.2-.2.2h-46.84c-.1 0-.2-.1-.2-.2v-46.85c0-.1.1-.2.2-.2h10.3v-3.52h-10.3c-2.05 0-3.72 1.67-3.72 3.73v46.85c0 2.05 1.68 3.72 3.73 3.72h46.85c2.06 0 3.72-1.67 3.72-3.72v-8.53h-3.53v8.53zm47.24-90.56v46.85c0 2.06-1.66 3.72-3.7 3.72h-10.3v-3.54h10.3c.08 0 .18-.1.18-.2v-46.84c0-.1-.1-.2-.2-.2h-46.84c-.1 0-.2.1-.2.2v10.3h-3.52v-10.3c0-2.05 1.66-3.72 3.72-3.72h46.85c2.04 0 3.7 1.67 3.7 3.72z" stroke="#000" stroke-opacity="0" fill="#fff"/><use xlink:href="#p" transform="matrix(1,0,0,1,-2012.089539098122,-1811) translate(6.940104166666657 30.138888888888893)"/><use xlink:href="#q" transform="matrix(1,0,0,1,-2012.089539098122,-1811) translate(124.6853298611111 30.138888888888893)"/><path d="M-2320-1460h135v135h-135v-135z" stroke="#000" stroke-opacity="0" fill="#ed7100"/><path d="M-2274.42-1370.58h42.14v-42.14h-42.14v42.14zm45.55-42.14h6.7v3.3h-6.7v6.8h6.7v3.4h-6.7v5.02h6.7v3.4h-6.7v6.7h6.7v3.4h-6.7v6.72h6.7v3.4h-6.7v.3c0 1.7-1.42 3.1-3.12 3.1h-.28v6.72h-3.3v-6.7h-6.8v6.7h-3.4v-6.7h-5.02v6.7h-3.4v-6.7h-6.7v6.7h-3.4v-6.7h-6.72v6.7h-3.4v-6.7h-.3c-1.7 0-3.1-1.43-3.1-3.13v-.28h-5v-3.4h5v-6.7h-5v-3.4h5v-6.72h-5v-3.4h5v-5h-5v-3.4h5v-6.82h-5v-3.3h5v-.3c0-1.7 1.4-3.1 3.1-3.1h.3v-6.7h3.4v6.7h6.7v-6.7h3.4v6.7h6.72v-6.7h3.4v6.7h5v-6.7h3.4v6.7h6.82v-6.7h3.3v6.7h.3c1.7 0 3.1 1.4 3.1 3.1v.3zm-21.93 63.88c0 .1-.1.2-.2.2h-45.16c-.1 0-.2-.1-.2-.2V-1394c0-.1.1-.2.2-.2h9.92v-3.4h-9.92c-1.98 0-3.6 1.6-3.6 3.6v45.16c0 1.98 1.62 3.6 3.6 3.6h45.17c2 0 3.6-1.62 3.6-3.6v-8.22h-3.4v8.22zm45.55-87.32v45.17c0 2-1.6 3.6-3.6 3.6h-9.9v-3.4h9.9c.1 0 .2-.1.2-.2v-45.16c0-.1-.1-.2-.2-.2H-2254c-.1 0-.2.1-.2.2v9.92h-3.4v-9.92c0-1.98 1.6-3.6 3.6-3.6h45.16c1.98 0 3.6 1.62 3.6 3.6z" stroke="#000" stroke-opacity="0" fill="#fff"/><use xlink:href="#r" transform="matrix(1,0,0,1,-2350,-1316) translate(33.72829861111111 30.138888888888893)"/><path d="M-1981.3-1080h140.5v140.5h-140.5V-1080z" stroke="#000" stroke-opacity="0" fill="#ed7100"/><path d="M-1933.86-986.93h43.86v-43.87h-43.86v43.87zm47.4-43.87h7v3.45h-7v7.08h7v3.54h-7v5.2h7v3.55h-7v7h7v3.53h-7v6.98h7v3.54h-7v.3c0 1.77-1.47 3.24-3.24 3.24h-.3v7h-3.44v-7h-7.08v7h-3.54v-7h-5.2v7h-3.56v-7h-6.98v7h-3.54v-7h-6.98v7h-3.54v-7h-.3c-1.77 0-3.24-1.46-3.24-3.23v-.3h-5.22v-3.54h5.22v-6.98h-5.22v-3.54h5.22v-6.98h-5.22v-3.54h5.22v-5.2h-5.22v-3.55h5.22v-7.08h-5.22v-3.45h5.22v-.3c0-1.76 1.47-3.24 3.24-3.24h.3v-6.98h3.54v6.98h6.98v-6.98h3.54v6.98h6.98v-6.98h3.55v6.98h5.2v-6.98h3.55v6.98h7.08v-6.98h3.44v6.98h.3c1.77 0 3.24 1.48 3.24 3.25v.3zm-22.8 66.5c0 .1-.1.2-.2.2h-47.02c-.1 0-.2-.1-.2-.2v-47.02c0-.1.1-.2.2-.2h10.32v-3.54h-10.32c-2.07 0-3.74 1.67-3.74 3.74v47c0 2.08 1.67 3.75 3.74 3.75h47c2.07 0 3.75-1.67 3.75-3.74v-8.56h-3.54v8.55zm47.4-90.9v47.03c0 2.06-1.68 3.74-3.75 3.74h-10.33v-3.55h10.33c.1 0 .2-.1.2-.2v-47c0-.1-.1-.2-.2-.2h-47.02c-.1 0-.2.1-.2.2v10.32h-3.54v-10.33c0-2.05 1.68-3.72 3.74-3.72h47c2.08 0 3.75 1.67 3.75 3.73z" stroke="#000" stroke-opacity="0" fill="#fff"/><use xlink:href="#s" transform="matrix(1,0,0,1,-2011.2981177633471,-930.4933035714284) translate(47.42274305555555 30.138888888888893)"/><path d="M-2320-1800h135v135h-135v-135z" stroke="#000" stroke-opacity="0" fill="#ed7100"/><path d="M-2274.42-1710.58h42.14v-42.14h-42.14v42.14zm45.55-42.14h6.7v3.3h-6.7v6.8h6.7v3.4h-6.7v5.02h6.7v3.4h-6.7v6.7h6.7v3.4h-6.7v6.72h6.7v3.4h-6.7v.3c0 1.7-1.42 3.1-3.12 3.1h-.28v6.72h-3.3v-6.7h-6.8v6.7h-3.4v-6.7h-5.02v6.7h-3.4v-6.7h-6.7v6.7h-3.4v-6.7h-6.72v6.7h-3.4v-6.7h-.3c-1.7 0-3.1-1.43-3.1-3.13v-.28h-5v-3.4h5v-6.7h-5v-3.4h5v-6.72h-5v-3.4h5v-5h-5v-3.4h5v-6.82h-5v-3.3h5v-.3c0-1.7 1.4-3.1 3.1-3.1h.3v-6.7h3.4v6.7h6.7v-6.7h3.4v6.7h6.72v-6.7h3.4v6.7h5v-6.7h3.4v6.7h6.82v-6.7h3.3v6.7h.3c1.7 0 3.1 1.4 3.1 3.1v.3zm-21.93 63.88c0 .1-.1.2-.2.2h-45.16c-.1 0-.2-.1-.2-.2V-1734c0-.1.1-.2.2-.2h9.92v-3.4h-9.92c-1.98 0-3.6 1.6-3.6 3.6v45.16c0 1.98 1.62 3.6 3.6 3.6h45.17c2 0 3.6-1.62 3.6-3.6v-8.22h-3.4v8.22zm45.55-87.32v45.17c0 2-1.6 3.6-3.6 3.6h-9.9v-3.4h9.9c.1 0 .2-.1.2-.2v-45.16c0-.1-.1-.2-.2-.2H-2254c-.1 0-.2.1-.2.2v9.92h-3.4v-9.92c0-1.98 1.6-3.6 3.6-3.6h45.16c1.98 0 3.6 1.62 3.6 3.6z" stroke="#000" stroke-opacity="0" fill="#fff"/><use xlink:href="#t" transform="matrix(1,0,0,1,-2350,-1656) translate(31.9357638888889 30.138888888888893)"/><path d="M-2720.7-1200h131.4v131.43h-131.4V-1200z" stroke="#000" stroke-opacity="0" fill="#dd344c"/><path d="M-2697.04-1132.63h-3.96v-3.3h3.96c.27-8.3 3.03-16.2 7.9-22.92l2.68 1.93c-4.5 6.17-7 13.34-7.27 20.98h4.23v3.3h-4.23c.27 7.65 2.76 14.9 7.27 21.17l-2.67 1.93c-4.97-6.8-7.64-14.72-7.9-23.1zm66.7 32.57c-6.72 4.87-14.72 7.54-23 7.9v3.87h-3.32v-3.85c-8.28-.37-16.28-3.04-23-7.9l1.94-2.68c6.16 4.5 13.43 7 21.06 7.27v-4.33h3.32v4.34c7.63-.28 14.9-2.76 21.06-7.27l1.94 2.67zm-49.32-68.36c6.72-4.87 14.72-7.54 23-7.82v-4.05h3.32v4.06c8.28.28 16.28 2.95 23 7.82l-1.94 2.67c-6.16-4.42-13.43-6.9-21.06-7.27v4.23h-3.32v-4.22c-7.63.37-14.9 2.85-21.06 7.27l-1.94-2.67zm70.66 32.48v3.3h-3.96c-.27 8.38-2.94 16.3-7.9 23.1l-2.68-1.93c4.5-6.26 7-13.52 7.27-21.16h-4.23v-3.3h4.23c-.27-7.65-2.76-14.82-7.27-21l2.67-1.92c4.88 6.72 7.64 14.63 7.9 22.9h3.97zm-21.44-25.2l12.88-12.9 2.4 2.3-12.88 12.9-2.4-2.3zm-49.12 53.8l-12.88 12.9-2.4-2.3 12.88-12.9 2.4 2.3zm3.58-45.53l-24.38-24.38 2.4-2.4 24.38 24.4-2.4 2.38zm41.86 37.17l24.48 24.38-2.4 2.4-24.38-24.48 2.3-2.3zm-34.6-17.4c.1-.17.3-.45.38-.63 2.76-4.33 2.02-10.3 1.1-13.8 2.4 1.47 4.5 4.7 5.25 6.07.38.55.93.92 1.57.83.65 0 1.2-.46 1.47-1.02 2.4-7 1.2-12.23-.55-15.64 2.1 1.3 3.67 3.05 4.78 5.26 2.3 4.87 1.84 11.4-1.38 17.3-4.33 7.9-3.4 16.28-2.4 20.7-2.48-1.02-4.7-2.2-6.62-3.6-4.97-3.4-6.53-10.2-3.6-15.45zm22.1-.54c-.1.64.18 1.38.82 1.65.55.38 1.3.38 1.84-.08.1-.1 2.85-2.3 4.14-7.73 1.56 2.3 3.22 6.9 1 15.36-2.2 8.37-12.4 10.76-16.1 11.3-.9-3.1-2.66-11.95 1.76-20.04 3.13-5.8 3.96-12.33 2.4-17.67 2.94 3.5 5.42 8.93 4.13 17.2zm-24.94-1c-3.77 6.6-1.75 15.26 4.6 19.77 2.85 1.93 6.35 3.68 10.3 5.15.2.1.37.1.56.1h.1c.72-.1 17.1-1.48 20.32-14 4.23-16-4.14-20.8-4.5-20.97-.47-.27-1.02-.27-1.48 0-.55.2-.83.75-.92 1.3-.1 1.1-.28 2.02-.55 2.94-1.1-12.6-11.04-17.75-13.07-18.67-2.1-1.57-4.6-2.67-7.54-3.13-.74-.2-1.47.18-1.75.92-.36.64-.17 1.47.38 1.93.28.17 5.43 4.68 3.96 13.05-1.94-2.48-4.97-5.52-8.56-5.52-.55 0-1 .28-1.3.74-.36.46-.36 1-.17 1.56 0 .1 3.4 8.93.1 14-.18.26-.28.54-.46.82z" stroke="#000" stroke-opacity="0" fill="#fff"/><use xlink:href="#k" transform="matrix(1,0,0,1,-2750.714285714286,-1059.5714285714284) translate(22.103515625 30.138888888888893)"/><use xlink:href="#u" transform="matrix(1,0,0,1,-2750.714285714286,-1059.5714285714284) translate(101.17252604166667 30.138888888888893)"/><path d="M-2576.48-1475l-3.5-3.52 64.15-63.5h7.03zm240.56-238.25l-134.87 133.57h-7.02l138.42-137.1z" stroke="#3a414a" stroke-width=".05" fill="#3a414a"/><path d="M-2576.44-1475.05l-3.66 3.64.05-.75.05-2.85-.1-3.37.18-.2z" fill="#3a414a"/><path stroke="#3a414a" stroke-width=".05" fill="#3a414a"/><path d="M-2332.62-1713.47l-6.53-6.6 13.4-6.74z" fill="#3a414a"/><path d="M-2331.98-1709.3l-11.32-11.44 23.24-11.7zm-3-10.08l1.72 1.74 1.82-3.53z" stroke="#3a414a" stroke-width=".05" fill="#3a414a"/><use xlink:href="#v" transform="matrix(1,0,0,1,-2537.0319454953024,-1579.6757518305074) translate(0 30.138888888888893)"/><path d="M-2342.94-1402.38l-1.5 4.72-115.82-36.75v-5.2zm-173.8-55.15v5.2l-61.63-19.56 1.5-4.7z" stroke="#3a414a" stroke-width=".05" fill="#3a414a"/><path d="M-2327.7-1394.95l-15 .1 2.8-8.83z" fill="#3a414a"/><path d="M-2320.08-1392.52l-26.02.17 4.86-15.33zm-19.24-4.82l3.98-.03-3.24-2.3z" stroke="#3a414a" stroke-width=".05" fill="#3a414a"/><path d="M-2576.8-1476.58l-1.5 4.7-1.75-.54.05-2.58-.1-2.62z" fill="#3a414a"/><path stroke="#3a414a" stroke-width=".05" fill="#3a414a"/><use xlink:href="#w" transform="matrix(1,0,0,1,-2516.7522980434587,-1464.7894473859853) translate(0 30.138888888888893)"/><path d="M-2250.03-1104.86h-4.94V-1283h4.94zm0-206.14h-4.94v-11.5h4.94z" stroke="#3a414a" stroke-width=".05" fill="#3a414a"/><path d="M-2250.03-1322.44h-4.94v-2.56h4.94z" fill="#3a414a"/><path stroke="#3a414a" stroke-width=".05" fill="#3a414a"/><path d="M-2252.5-1088.1l-4.64-14.26h9.28z" fill="#3a414a"/><path d="M-2252.5-1080.08l-8.04-24.75h16.08zm-1.23-19.8l1.23 3.78 1.23-3.78zM-1908.57-1082.5h-4.95v-157.6h4.95zm0-185.6h-4.95v-11.5h4.95z" stroke="#3a414a" stroke-width=".05" fill="#3a414a"/><path d="M-1908.57-1080h-4.95v-2.56h4.95z" fill="#3a414a"/><path stroke="#3a414a" stroke-width=".05" fill="#3a414a"/><path d="M-1908.57-1279.53h-4.95v-2.56h4.95z" fill="#3a414a"/><path stroke="#3a414a" stroke-width=".05" fill="#3a414a"/><path d="M-2182.56-1383.7l200.12 45.64" stroke="#3a414a" stroke-width="5" fill="none"/><path d="M-2181.95-1386.1l-1.1 4.84-1.95-.45v-5.1zM-1980-1340.04v5.08l-3.05-.7 1.1-4.82zM-2652.53-1574.86h-4.94v-111.97h4.94zm0-192.14h-4.94v-10.5h4.94z" stroke="#3a414a" stroke-width=".05" fill="#3a414a"/><path d="M-2652.53-1777.44h-4.94v-2.56h4.94z" fill="#3a414a"/><path stroke="#3a414a" stroke-width=".05" fill="#3a414a"/><path d="M-2655-1558.1l-4.64-14.26h9.28z" fill="#3a414a"/><path d="M-2655-1550.08l-8.04-24.75h16.08zm-1.23-19.8l1.23 3.78 1.23-3.78z" stroke="#3a414a" stroke-width=".05" fill="#3a414a"/><path d="M-2655-1202v-175.26" stroke="#3a414a" stroke-width="4" fill="none"/><path d="M-2653.03-1200h-3.94v-2.05h3.94z" stroke="#3a414a" stroke-width=".05" fill="#3a414a"/><path d="M-2655-1393.53l4.64 14.27h-9.28z" stroke="#3a414a" stroke-width="4" fill="#3a414a"/><path d="M-2840.4-1157.76l109.58-314.88" stroke="#3a414a" stroke-width="5" fill="none"/><path d="M-2845.9-1141.93l.3-15 8.75 3.05z" stroke="#3a414a" stroke-width="5" fill="#3a414a"/><path d="M-2729.93-1478.15l-.02.3-.05 2.85.1 2.75-3.28-1.14 1.83-5.25z" stroke="#3a414a" stroke-width=".05" fill="#3a414a"/><path d="M-3151.1-1535.12c0-12.06 9.9-21.78 22.14-21.78 12.06 0 21.96 9.72 21.96 21.78 0 11.88-9.9 21.6-21.96 21.6-12.24 0-22.14-9.72-22.14-21.6zm47.16 28.8c-2.52-1.62-5.4-3.06-8.28-4.14 8.1-5.4 13.32-14.4 13.32-24.66 0-16.56-13.5-29.88-30.06-29.88-16.74 0-30.24 13.32-30.24 29.88 0 10.26 5.22 19.26 13.32 24.66-5.22 1.98-10.08 4.86-14.58 8.64l5.4 6.12c7.38-6.3 16.56-9.72 25.92-9.72 7.38 0 14.58 2.16 20.88 5.94 11.34 7.02 18.72 19.26 19.8 32.58h-40.68v8.28h45c2.34 0 4.14-1.8 4.14-4.14 0-17.82-9.18-34.38-23.94-43.56zm-128.88-28.8c0-12.06 9.9-21.78 21.96-21.78 12.24 0 21.96 9.72 21.96 21.78 0 11.88-9.72 21.6-21.96 21.6-12.06 0-21.96-9.72-21.96-21.6zm21.96 68.22h-40.68c1.98-21.6 19.44-38.52 40.68-38.52 7.38 0 14.58 2.16 20.88 5.94 1.8 1.26 3.42 2.34 5.04 3.78l5.4-6.12c-1.98-1.8-3.96-3.24-6.12-4.5-2.7-1.62-5.4-3.06-8.28-4.14 7.92-5.4 13.32-14.4 13.32-24.66 0-16.56-13.5-29.88-30.24-29.88-16.56 0-30.24 13.32-30.24 29.88 0 10.26 5.4 19.26 13.5 24.66-18.9 7.2-32.4 25.74-32.4 47.7 0 2.34 1.8 4.14 4.14 4.14h45v-8.28zm.18 73.8c1.98-21.78 19.44-38.7 40.68-38.7 7.38 0 14.58 2.16 20.88 5.94 11.16 7.02 18.54 19.26 19.8 32.76h-81.36zm18.72-68.4c0-12.06 9.9-21.6 21.96-21.6 12.24 0 22.14 9.54 22.14 21.6 0 11.88-9.9 21.6-22.14 21.6-12.06 0-21.96-9.72-21.96-21.6zm47.16 28.8c-2.7-1.62-5.4-3.06-8.28-4.14 8.1-5.4 13.32-14.4 13.32-24.66 0-16.56-13.5-29.88-30.24-29.88-16.56 0-30.06 13.32-30.06 29.88 0 10.26 5.22 19.26 13.32 24.66-18.9 7.2-32.4 25.74-32.4 47.7 0 2.34 1.8 4.14 4.14 4.14h90c2.34 0 4.14-1.8 4.14-4.14 0-17.64-9.18-34.38-23.94-43.56z" stroke="#000" stroke-opacity="0" fill="#232f3e"/><path d="M-1681.62-1551.88l-500.24 160.97-1.52-4.72 500.24-160.97z" stroke="#3a414a" stroke-width=".05" fill="#3a414a"/><path d="M-2181.8-1390.93l-3.2 1.03v-5.2l1.68-.54z" fill="#3a414a"/><path stroke="#3a414a" stroke-width=".05" fill="#3a414a"/><path d="M-1680-1552.4l-1.68.54-1.52-4.7 3.2-1.04z" fill="#3a414a"/><path stroke="#3a414a" stroke-width=".05" fill="#3a414a"/><path d="M-1681.54-1558.16l-1.64 4.67-500.28-175.84 1.64-4.67z" stroke="#3a414a" stroke-width=".05" fill="#3a414a"/><path d="M-2181.76-1733.98l-1.64 4.66-1.6-.56v-5.24z" fill="#3a414a"/><path stroke="#3a414a" stroke-width=".05" fill="#3a414a"/><path d="M-1680-1557.62v5.24l-3.24-1.13 1.64-4.68z" fill="#3a414a"/><path stroke="#3a414a" stroke-width=".05" fill="#3a414a"/><path d="M-3076.5-1475h343" stroke="#3a414a" stroke-width="7" fill="none"/><path d="M-3076.4-1471.53h-4.43l-.53-3.03-1.16-3.9h6.1zM-2729.95-1477.85l-.05 2.85.12 3.47h-3.7v-6.94h3.68z" stroke="#3a414a" stroke-width=".05" fill="#3a414a"/><path d="M-3155.8-1364.6l174.37 250.17" stroke="#3a414a" stroke-width="5" fill="none"/><path d="M-3165.37-1378.36l11.95 9.05-7.6 5.3z" stroke="#3a414a" stroke-width="5" fill="#3a414a"/><path d="M-2980-1108.72l-.32.2-3.18-4.55 3.5-2.44z" stroke="#3a414a" stroke-width=".05" fill="#3a414a"/><path d="M-2179.75-1009.75h173.6" stroke="#3a414a" stroke-width="5" fill="none"/><path d="M-2179.68-1007.27h-2.57v-4.95h2.57z" stroke="#3a414a" stroke-width=".05" fill="#3a414a"/><path d="M-1989.4-1009.75l-14.25 4.64v-9.28z" stroke="#3a414a" stroke-width="5" fill="#3a414a"/><path d="M-1612.53-1649.86h-4.94V-1768h4.94zm0-146.14h-4.94v-11.5h4.94z" stroke="#3a414a" stroke-width=".05" fill="#3a414a"/><path d="M-1612.53-1807.44h-4.94v-2.56h4.94z" fill="#3a414a"/><path stroke="#3a414a" stroke-width=".05" fill="#3a414a"/><path d="M-1615-1633.1l-4.63-14.26h9.27z" fill="#3a414a"/><path d="M-1615-1625.08l-8.04-24.75h16.08zm-1.23-19.8l1.23 3.78 1.23-3.78zM-1829.6-1027.1l-4.47-2.16 200.92-413.74h5.5zm220.73-454.57l-5.18 10.67h-5.5l6.23-12.83z" stroke="#3a414a" stroke-width=".05" fill="#3a414a"/><path d="M-1826.2-1022.65l-12.4 8.4-1.08-14.96z" fill="#3a414a"/><path d="M-1821.25-1023l-19.52 13.2-1.68-23.5zm-15.2 4.3l5.33-3.6-5.78-2.8z" stroke="#3a414a" stroke-width=".05" fill="#3a414a"/><path d="M-1608.9-1481.6l-4.45-2.18.6-1.22h5.5z" fill="#3a414a"/><path stroke="#3a414a" stroke-width=".05" fill="#3a414a"/><path d="M-3290-1619a6 6 0 0 1 6-6h228a6 6 0 0 1 6 6v48a6 6 0 0 1-6 6h-228a6 6 0 0 1-6-6z" fill="none"/><g><use xlink:href="#x" transform="matrix(1,0,0,1,-3290,-1625) translate(75.58919270833334 41.31727430555556)"/></g><path d="M-2780-1384a6 6 0 0 1 6-6h228a6 6 0 0 1 6 6v48a6 6 0 0 1-6 6h-228a6 6 0 0 1-6-6z" fill="none"/><g><use xlink:href="#y" transform="matrix(1,0,0,1,-2780,-1390) translate(90.29405381944444 41.31727430555556)"/></g><defs><path d="M600 0L52-1490h200c166 485 304 806 458 1336 156-533 285-846 449-1336h202L819 0H600" id="z"/><path d="M158 0v-1118h180V0H158zm91-1301c-68 0-125-53-125-119s57-119 125-119c69 0 126 53 126 119s-57 119-126 119" id="A"/><path d="M158 0v-1118h174v172h12c41-113 157-188 290-188 26 0 70 2 91 3v181c-11-2-60-10-108-10-161 0-279 109-279 260V0H158" id="B"/><path d="M598-1118v154H368v674c0 100 37 144 132 144 23 0 62-6 92-12L629-6c-37 13-88 20-134 20-193 0-307-107-307-290v-688H20v-154h168v-266h180v266h230" id="C"/><path d="M537 14c-226 0-379-139-379-422v-710h180v695c0 172 97 275 253 275 160 0 281-109 281-300v-670h181V0H879v-209C806-46 684 14 537 14" id="D"/><path d="M471 26C259 26 90-98 90-318c0-256 228-303 435-329 202-27 287-16 287-108 0-139-79-219-234-219-161 0-248 86-283 164l-173-57c86-203 278-265 451-265 150 0 419 46 419 395V0H815v-152h-12C765-73 660 26 471 26zm31-159c199 0 310-134 310-271v-155c-30 35-226 55-295 64-131 17-246 59-246 186 0 116 97 176 231 176" id="E"/><path d="M338-1490V0H158v-1490h180" id="F"/><g id="a"><use transform="matrix(0.015190972222222224,0,0,0.015190972222222224,0,0)" xlink:href="#z"/><use transform="matrix(0.015190972222222224,0,0,0.015190972222222224,21.464843750000004,0)" xlink:href="#A"/><use transform="matrix(0.015190972222222224,0,0,0.015190972222222224,28.99956597222223,0)" xlink:href="#B"/><use transform="matrix(0.015190972222222224,0,0,0.015190972222222224,41.19791666666667,0)" xlink:href="#C"/><use transform="matrix(0.015190972222222224,0,0,0.015190972222222224,51.37586805555556,0)" xlink:href="#D"/><use transform="matrix(0.015190972222222224,0,0,0.015190972222222224,69.77213541666667,0)" xlink:href="#E"/><use transform="matrix(0.015190972222222224,0,0,0.015190972222222224,87.24175347222223,0)" xlink:href="#F"/></g><path d="M158 418v-1536h174v179h20c37-59 106-193 324-193 279 0 474 222 474 576 0 356-194 580-473 580-213 0-288-135-325-197h-14v591H158zm492-555c209 0 317-186 317-421 0-232-105-413-317-413-206 0-314 166-314 413 0 249 111 421 314 421" id="G"/><path d="M481 0L54-1118h197c107 314 236 620 325 951 87-331 217-637 324-951h197L670 0H481" id="H"/><path d="M628 24c-324 0-524-230-524-574 0-343 198-582 503-582 237 0 487 146 487 559v75H286c9 234 145 362 343 362 132 0 231-58 273-172l174 48C1024-91 857 24 628 24zM287-650h624c-17-190-120-322-304-322-192 0-309 151-320 322" id="I"/><g id="b"><use transform="matrix(0.015190972222222224,0,0,0.015190972222222224,0,0)" xlink:href="#G"/><use transform="matrix(0.015190972222222224,0,0,0.015190972222222224,19.049479166666668,0)" xlink:href="#B"/><use transform="matrix(0.015190972222222224,0,0,0.015190972222222224,31.247829861111114,0)" xlink:href="#A"/><use transform="matrix(0.015190972222222224,0,0,0.015190972222222224,38.782552083333336,0)" xlink:href="#H"/><use transform="matrix(0.015190972222222224,0,0,0.015190972222222224,56.11545138888889,0)" xlink:href="#E"/><use transform="matrix(0.015190972222222224,0,0,0.015190972222222224,73.58506944444446,0)" xlink:href="#C"/><use transform="matrix(0.015190972222222224,0,0,0.015190972222222224,83.4592013888889,0)" xlink:href="#I"/></g><path d="M613 24c-304 0-509-231-509-576 0-350 205-580 509-580 216 0 392 114 453 309l-173 49c-33-115-133-197-280-197-223 0-326 196-326 419 0 220 103 415 326 415 150 0 252-85 285-206l172 49C1010-95 832 24 613 24" id="J"/><path d="M613 24c-304 0-509-231-509-576 0-350 205-580 509-580 305 0 511 230 511 580 0 345-206 576-511 576zm0-161c226 0 329-195 329-415 0-222-103-419-329-419-223 0-326 196-326 419 0 220 103 415 326 415" id="K"/><path d="M577 24c-279 0-473-224-473-580 0-354 195-576 474-576 218 0 287 134 324 193h14v-551h180V0H922v-173h-20C865-111 790 24 577 24zm27-161c203 0 314-172 314-421 0-247-108-413-314-413-212 0-317 181-317 413 0 235 108 421 317 421" id="L"/><g id="c"><use transform="matrix(0.015190972222222224,0,0,0.015190972222222224,0,0)" xlink:href="#J"/><use transform="matrix(0.015190972222222224,0,0,0.015190972222222224,17.773437500000004,0)" xlink:href="#F"/><use transform="matrix(0.015190972222222224,0,0,0.015190972222222224,25.30815972222223,0)" xlink:href="#K"/><use transform="matrix(0.015190972222222224,0,0,0.015190972222222224,43.962673611111114,0)" xlink:href="#D"/><use transform="matrix(0.015190972222222224,0,0,0.015190972222222224,62.35894097222223,0)" xlink:href="#L"/></g><path d="M52 0l541-1490h220L1361 0h-200l-149-416H398L254 0H52zm404-582h497c-103-290-145-390-251-756-108 377-145 460-246 756" id="M"/><path d="M158 0v-1118h175l1 205c55-151 181-225 313-225 147 0 245 90 285 228 53-141 190-228 352-228 194 0 352 125 352 384V0h-181v-749c0-161-105-225-225-225-151 0-243 103-243 244V0H807v-767c0-124-93-207-219-207-131 0-250 92-250 270V0H158" id="N"/><path d="M126 0v-134l627-806v-11H146v-167h839v143L376-178v11h629V0H126" id="O"/><path d="M338-670V0H158v-1118h173l1 207c72-158 192-221 342-221 226 0 378 139 378 422V0H872v-695c0-172-96-275-252-275-161 0-282 109-282 300" id="P"/><g id="d"><use transform="matrix(0.015190972222222224,0,0,0.015190972222222224,0,0)" xlink:href="#M"/><use transform="matrix(0.015190972222222224,0,0,0.015190972222222224,21.464843750000004,0)" xlink:href="#N"/><use transform="matrix(0.015190972222222224,0,0,0.015190972222222224,48.71744791666667,0)" xlink:href="#E"/><use transform="matrix(0.015190972222222224,0,0,0.015190972222222224,66.18706597222223,0)" xlink:href="#O"/><use transform="matrix(0.015190972222222224,0,0,0.015190972222222224,82.91232638888889,0)" xlink:href="#K"/><use transform="matrix(0.015190972222222224,0,0,0.015190972222222224,101.56684027777777,0)" xlink:href="#P"/></g><path d="M657 26c-323 0-524-166-541-416h195c15 169 171 246 346 246 202 0 356-106 356-265 5-203-294-238-475-293-239-73-380-191-380-389 0-252 224-419 512-419 294 0 499 171 508 396H992c-17-145-151-228-328-228-193 0-321 102-321 242 0 156 175 211 284 241l149 41c160 44 422 134 422 412 0 244-197 432-541 432" id="Q"/><path d="M635 20c-292 0-500-160-510-396h192c11 142 145 229 315 229 187 0 323-105 323-260 0-161-125-274-346-274H488v-165h121c174 0 294-100 294-254 0-148-104-245-266-245-152 0-291 85-297 230H157c8-234 222-395 484-395 278 0 448 188 448 400 0 168-95 291-247 336v12c190 31 301 169 301 357 0 244-216 425-508 425" id="R"/><g id="e"><use transform="matrix(0.015190972222222224,0,0,0.015190972222222224,0,0)" xlink:href="#Q"/><use transform="matrix(0.015190972222222224,0,0,0.015190972222222224,19.960937500000004,0)" xlink:href="#R"/></g><path d="M180 0v-1490h270l367 940c28 72 75 218 110 339 35-117 81-264 110-339l362-940h271V0h-187c2-448-5-837 7-1287-157 497-311 829-483 1287H842C666-458 514-784 354-1284c12 438 5 843 7 1284H180" id="S"/><path d="M784 20c-382 0-662-292-662-764 0-473 280-766 662-766s660 293 660 766c0 282-99 499-260 629l192 255h-198L1049-33C969 2 880 20 784 20zm-62-486h198l156 205c112-98 183-261 183-483 0-383-209-590-475-590-268 0-477 208-477 590 0 380 209 588 477 588 54 0 106-9 154-25" id="T"/><g id="f"><use transform="matrix(0.015190972222222224,0,0,0.015190972222222224,0,0)" xlink:href="#S"/><use transform="matrix(0.015190972222222224,0,0,0.015190972222222224,28.103298611111114,0)" xlink:href="#T"/></g><linearGradient gradientUnits="userSpaceOnUse" id="g" x1="-1980" y1="-1282.09" x2="-1842.09" y2="-1420"><stop offset="0%" stop-color="#2e27ad"/><stop offset="100%" stop-color="#527fff"/></linearGradient><path d="M180 0v-1490h510c348 0 508 194 508 460 0 198-88 351-276 417L1256 0h-220L726-579c-117 2-238 0-356 1V0H180zm190-747h312c235 0 327-108 327-283 0-177-92-293-329-293H370v576" id="U"/><path d="M645 0H180v-1490h484c435 0 692 280 692 742 0 466-257 748-711 748zM370-168h263c363 0 539-218 539-580 0-358-176-574-521-574H370v1154" id="V"/><g id="h"><use transform="matrix(0.015190972222222224,0,0,0.015190972222222224,0,0)" xlink:href="#U"/><use transform="matrix(0.015190972222222224,0,0,0.015190972222222224,20.02170138888889,0)" xlink:href="#V"/><use transform="matrix(0.015190972222222224,0,0,0.015190972222222224,42.473958333333336,0)" xlink:href="#Q"/></g><path d="M783 20c-382 0-661-292-661-764 0-473 279-766 661-766 302 0 548 182 601 489h-190c-42-204-217-313-411-313-268 0-476 208-476 590 0 381 209 588 476 588 195 0 369-110 411-313h190c-52 303-296 489-601 489" id="W"/><path d="M678-1118v154H420V0H240v-964H20v-154h220v-149c0-194 155-293 318-293 85 0 141 18 168 30l-50 154c-19-6-47-17-97-17-111 0-159 58-159 166v109h258" id="X"/><g id="i"><use transform="matrix(0.015190972222222224,0,0,0.015190972222222224,0,0)" xlink:href="#W"/><use transform="matrix(0.015190972222222224,0,0,0.015190972222222224,22.725694444444446,0)" xlink:href="#I"/><use transform="matrix(0.015190972222222224,0,0,0.015190972222222224,40.863715277777786,0)" xlink:href="#B"/><use transform="matrix(0.015190972222222224,0,0,0.015190972222222224,53.062065972222236,0)" xlink:href="#C"/><use transform="matrix(0.015190972222222224,0,0,0.015190972222222224,63.24001736111113,0)" xlink:href="#A"/><use transform="matrix(0.015190972222222224,0,0,0.015190972222222224,70.77473958333336,0)" xlink:href="#X"/><use transform="matrix(0.015190972222222224,0,0,0.015190972222222224,82.2894965277778,0)" xlink:href="#A"/><use transform="matrix(0.015190972222222224,0,0,0.015190972222222224,89.82421875000003,0)" xlink:href="#J"/><use transform="matrix(0.015190972222222224,0,0,0.015190972222222224,107.90147569444447,0)" xlink:href="#E"/><use transform="matrix(0.015190972222222224,0,0,0.015190972222222224,125.37109375000004,0)" xlink:href="#C"/><use transform="matrix(0.015190972222222224,0,0,0.015190972222222224,135.24522569444449,0)" xlink:href="#I"/></g><path d="M611 442c-248 0-391-105-460-228l146-94c47 65 117 165 314 165 178 0 307-82 307-266v-224h-17C863-141 792-18 576-18c-268 0-472-195-472-546 0-346 197-568 476-568 216 0 288 133 326 193h17v-179h175V29c0 289-215 413-487 413zm-5-620c203 0 314-146 314-390 0-237-108-403-314-403-213 0-319 180-319 403 0 230 109 390 319 390" id="Y"/><path d="M218-607c0-325 108-727 258-974h175c-155 315-250 682-250 974 0 265 78 531 250 886H476C306-10 218-315 218-607" id="Z"/><path d="M96 279C273-86 346-350 346-607c0-292-95-659-250-974h175c150 246 258 650 258 974 0 297-91 602-258 886H96" id="aa"/><g id="j"><use transform="matrix(0.015190972222222224,0,0,0.015190972222222224,0,0)" xlink:href="#S"/><use transform="matrix(0.015190972222222224,0,0,0.015190972222222224,28.103298611111114,0)" xlink:href="#E"/><use transform="matrix(0.015190972222222224,0,0,0.015190972222222224,45.57291666666667,0)" xlink:href="#P"/><use transform="matrix(0.015190972222222224,0,0,0.015190972222222224,63.953993055555564,0)" xlink:href="#E"/><use transform="matrix(0.015190972222222224,0,0,0.015190972222222224,81.42361111111111,0)" xlink:href="#Y"/><use transform="matrix(0.015190972222222224,0,0,0.015190972222222224,100.50347222222223,0)" xlink:href="#I"/><use transform="matrix(0.015190972222222224,0,0,0.015190972222222224,118.64149305555557,0)" xlink:href="#B"/><use transform="matrix(0.015190972222222224,0,0,0.015190972222222224,130.3537326388889,0)" xlink:href="#Z"/><use transform="matrix(0.015190972222222224,0,0,0.015190972222222224,141.7013888888889,0)" xlink:href="#M"/><use transform="matrix(0.015190972222222224,0,0,0.015190972222222224,162.10286458333337,0)" xlink:href="#W"/><use transform="matrix(0.015190972222222224,0,0,0.015190972222222224,184.82855902777783,0)" xlink:href="#S"/><use transform="matrix(0.015190972222222224,0,0,0.015190972222222224,212.93185763888894,0)" xlink:href="#aa"/></g><path d="M458 0L52-1490h194c108 439 233 855 324 1313 92-459 221-873 331-1313h216c110 438 234 854 330 1307 92-455 216-869 323-1307h196L1558 0h-221l-256-944c-26-95-50-200-73-331-22 122-44 223-73 331L680 0H458" id="ab"/><g id="k"><use transform="matrix(0.015190972222222224,0,0,0.015190972222222224,0,0)" xlink:href="#M"/><use transform="matrix(0.015190972222222224,0,0,0.015190972222222224,19.702690972222225,0)" xlink:href="#ab"/><use transform="matrix(0.015190972222222224,0,0,0.015190972222222224,50.35807291666667,0)" xlink:href="#Q"/></g><path d="M180 0v-1490h190c0 262 1 526-3 784 217-279 467-523 702-784h249L716-845 1319 0h-225L585-716 370-489V0H180" id="ac"/><g id="l"><use transform="matrix(0.015190972222222224,0,0,0.015190972222222224,0,0)" xlink:href="#ac"/><use transform="matrix(0.015190972222222224,0,0,0.015190972222222224,20.90277777777778,0)" xlink:href="#S"/><use transform="matrix(0.015190972222222224,0,0,0.015190972222222224,49.00607638888889,0)" xlink:href="#Q"/></g><g id="m"><use transform="matrix(0.015190972222222224,0,0,0.015190972222222224,0,0)" xlink:href="#U"/><use transform="matrix(0.015190972222222224,0,0,0.015190972222222224,19.56597222222222,0)" xlink:href="#K"/><use transform="matrix(0.015190972222222224,0,0,0.015190972222222224,38.220486111111114,0)" xlink:href="#D"/><use transform="matrix(0.015190972222222224,0,0,0.015190972222222224,56.61675347222223,0)" xlink:href="#C"/><use transform="matrix(0.015190972222222224,0,0,0.015190972222222224,66.49088541666667,0)" xlink:href="#I"/></g><path d="M626 20c-262 0-458-168-468-396h184c12 133 134 229 284 229 180 0 311-137 311-326 0-192-136-335-323-335-92 0-196 33-255 78l-178-22 88-738h784v167H429l-51 435h8c61-51 160-87 263-87 273 0 474 211 474 499 0 286-210 496-497 496" id="ad"/><g id="n"><use transform="matrix(0.015190972222222224,0,0,0.015190972222222224,0,0)" xlink:href="#ad"/><use transform="matrix(0.015190972222222224,0,0,0.015190972222222224,18.912760416666668,0)" xlink:href="#R"/></g><path d="M180 0v-1490h224l606 953c40 63 108 177 176 312-27-437-7-821-13-1265h190V0h-226C860-448 622-778 356-1262c27 476 11 792 15 1262H180" id="ae"/><g id="o"><use transform="matrix(0.015190972222222224,0,0,0.015190972222222224,0,0)" xlink:href="#V"/><use transform="matrix(0.015190972222222224,0,0,0.015190972222222224,22.452256944444446,0)" xlink:href="#ae"/><use transform="matrix(0.015190972222222224,0,0,0.015190972222222224,45.89192708333334,0)" xlink:href="#Q"/></g><path d="M180 0v-1490h528c311 0 458 177 458 395 0 191-114 278-244 313v14c139 9 302 137 302 371 0 225-148 397-499 397H180zm190-168h350c232 0 321-102 321-231 0-149-120-277-311-277H370v508zm0-668h328c160 0 286-101 286-255 0-129-87-231-280-231H370v486" id="af"/><path d="M538 24C308 24 148-78 108-271l171-41c32 123 123 178 257 178 156 0 256-77 256-169 0-77-54-128-164-154l-186-44c-203-48-300-148-300-305 0-192 176-326 414-326 230 0 351 112 402 269l-163 42c-31-80-94-158-238-158-133 0-233 69-233 162 0 83 57 129 188 160l169 40c203 48 298 149 298 302 0 196-179 339-441 339" id="ag"/><g id="p"><use transform="matrix(0.015190972222222224,0,0,0.015190972222222224,0,0)" xlink:href="#af"/><use transform="matrix(0.015190972222222224,0,0,0.015190972222222224,20.35590277777778,0)" xlink:href="#E"/><use transform="matrix(0.015190972222222224,0,0,0.015190972222222224,37.825520833333336,0)" xlink:href="#ag"/><use transform="matrix(0.015190972222222224,0,0,0.015190972222222224,54.24696180555556,0)" xlink:href="#C"/><use transform="matrix(0.015190972222222224,0,0,0.015190972222222224,64.42491319444444,0)" xlink:href="#A"/><use transform="matrix(0.015190972222222224,0,0,0.015190972222222224,71.95963541666667,0)" xlink:href="#K"/><use transform="matrix(0.015190972222222224,0,0,0.015190972222222224,90.61414930555556,0)" xlink:href="#P"/></g><path d="M180 0v-1490h190v644h782v-644h190V0h-190v-678H370V0H180" id="ah"/><g id="q"><use transform="matrix(0.015190972222222224,0,0,0.015190972222222224,0,0)" xlink:href="#ah"/><use transform="matrix(0.015190972222222224,0,0,0.015190972222222224,23.120659722222225,0)" xlink:href="#K"/><use transform="matrix(0.015190972222222224,0,0,0.015190972222222224,41.775173611111114,0)" xlink:href="#ag"/><use transform="matrix(0.015190972222222224,0,0,0.015190972222222224,58.19661458333334,0)" xlink:href="#C"/></g><path d="M158 0v-1490h180v865h22l478-493h223L593-638 1096 0H865L456-523 338-412V0H158" id="ai"/><g id="r"><use transform="matrix(0.015190972222222224,0,0,0.015190972222222224,0,0)" xlink:href="#af"/><use transform="matrix(0.015190972222222224,0,0,0.015190972222222224,20.35590277777778,0)" xlink:href="#E"/><use transform="matrix(0.015190972222222224,0,0,0.015190972222222224,37.825520833333336,0)" xlink:href="#J"/><use transform="matrix(0.015190972222222224,0,0,0.015190972222222224,55.59895833333334,0)" xlink:href="#ai"/><use transform="matrix(0.015190972222222224,0,0,0.015190972222222224,71.9748263888889,0)" xlink:href="#I"/><use transform="matrix(0.015190972222222224,0,0,0.015190972222222224,90.11284722222223,0)" xlink:href="#P"/><use transform="matrix(0.015190972222222224,0,0,0.015190972222222224,108.49392361111111,0)" xlink:href="#L"/></g><g id="s"><use transform="matrix(0.015190972222222224,0,0,0.015190972222222224,0,0)" xlink:href="#ab"/><use transform="matrix(0.015190972222222224,0,0,0.015190972222222224,29.075520833333336,0)" xlink:href="#K"/><use transform="matrix(0.015190972222222224,0,0,0.015190972222222224,47.73003472222223,0)" xlink:href="#B"/><use transform="matrix(0.015190972222222224,0,0,0.015190972222222224,59.92838541666668,0)" xlink:href="#ai"/><use transform="matrix(0.015190972222222224,0,0,0.015190972222222224,76.30425347222223,0)" xlink:href="#I"/><use transform="matrix(0.015190972222222224,0,0,0.015190972222222224,94.44227430555557,0)" xlink:href="#B"/></g><path d="M180 0v-1490h901v168H370v510h643v168H370V0H180" id="aj"/><g id="t"><use transform="matrix(0.015190972222222224,0,0,0.015190972222222224,0,0)" xlink:href="#aj"/><use transform="matrix(0.015190972222222224,0,0,0.015190972222222224,17.454427083333336,0)" xlink:href="#B"/><use transform="matrix(0.015190972222222224,0,0,0.015190972222222224,28.650173611111114,0)" xlink:href="#K"/><use transform="matrix(0.015190972222222224,0,0,0.015190972222222224,47.3046875,0)" xlink:href="#P"/><use transform="matrix(0.015190972222222224,0,0,0.015190972222222224,65.68576388888889,0)" xlink:href="#C"/><use transform="matrix(0.015190972222222224,0,0,0.015190972222222224,75.55989583333333,0)" xlink:href="#I"/><use transform="matrix(0.015190972222222224,0,0,0.015190972222222224,93.69791666666666,0)" xlink:href="#P"/><use transform="matrix(0.015190972222222224,0,0,0.015190972222222224,112.07899305555554,0)" xlink:href="#L"/></g><g id="u"><use transform="matrix(0.015190972222222224,0,0,0.015190972222222224,0,0)" xlink:href="#ab"/><use transform="matrix(0.015190972222222224,0,0,0.015190972222222224,28.893229166666668,0)" xlink:href="#M"/><use transform="matrix(0.015190972222222224,0,0,0.015190972222222224,50.35807291666667,0)" xlink:href="#aj"/></g><path d="M361 0L31-1118h315c68 295 127 523 188 845 63-317 128-551 199-845h276c71 296 131 525 196 846 57-321 119-552 186-846h319L1378 0h-305c-73-261-148-486-204-771C813-484 740-261 666 0H361" id="ak"/><path d="M342 19c-98 0-173-75-173-172s75-172 173-172 173 75 173 172S440 19 342 19" id="al"/><g id="v"><use transform="matrix(0.015190972222222224,0,0,0.015190972222222224,0,0)" xlink:href="#ak"/><use transform="matrix(0.015190972222222224,0,0,0.015190972222222224,26.447482638888893,0)" xlink:href="#ak"/><use transform="matrix(0.015190972222222224,0,0,0.015190972222222224,52.894965277777786,0)" xlink:href="#ak"/><use transform="matrix(0.015190972222222224,0,0,0.015190972222222224,77.04861111111111,0)" xlink:href="#al"/></g><path d="M440 22C227 22 68-92 68-313c0-250 202-322 422-343 195-21 271-24 271-105 0-95-63-149-175-149-116 0-187 57-211 129l-275-46c57-194 237-305 487-305 240 0 474 108 474 379V0H777v-155h-10C713-51 605 22 440 22zm85-211c140 0 238-93 238-211v-121c-37 26-156 42-222 51-111 16-185 59-185 149 0 87 70 132 169 132" id="am"/><path d="M128 418v-1536h295v188h14c41-89 129-202 319-202 248 0 453 193 453 575 0 372-197 576-455 576-183 0-275-108-317-198h-9v597H128zm534-640c156 0 240-139 240-336 0-196-83-334-240-334-154 0-241 131-241 334 0 202 88 336 241 336" id="an"/><path d="M128 0v-1118h300V0H128zm150-1264c-91 0-165-68-165-154 0-85 74-154 165-154 90 0 165 69 165 154 0 86-75 154-165 154" id="ao"/><g id="w"><use transform="matrix(0.015190972222222224,0,0,0.015190972222222224,0,0)" xlink:href="#am"/><use transform="matrix(0.015190972222222224,0,0,0.015190972222222224,18.062065972222225,0)" xlink:href="#an"/><use transform="matrix(0.015190972222222224,0,0,0.015190972222222224,37.673611111111114,0)" xlink:href="#ao"/><use transform="matrix(0.015190972222222224,0,0,0.015190972222222224,46.10460069444445,0)" xlink:href="#al"/></g><path d="M750 21c-371 0-615-218-615-544v-967h305v942c0 174 123 299 310 299s309-125 309-299v-942h306v967c0 326-247 544-615 544" id="ap"/><path d="M572 22C302 22 117-98 78-306l279-48c29 105 101 156 224 156 114 0 185-48 185-115 0-118-228-130-337-155-215-49-322-150-322-317 0-215 187-347 470-347 265 0 424 116 466 298l-266 47c-24-76-87-130-196-130-98 0-174 46-174 113 0 56 38 95 144 117l201 40c216 44 320 143 320 302 0 220-207 367-500 367" id="aq"/><path d="M633 22C291 22 81-200 81-553c0-345 210-579 537-579 292 0 525 185 525 567v84H378c7 183 109 277 260 277 105 0 184-46 216-132l272 51C1071-99 893 22 633 22zM380-669h474c-15-146-94-237-233-237-143 0-229 99-241 237" id="ar"/><path d="M128 0v-1118h290v195h12c54-169 184-238 367-200v268c-27-8-86-15-130-15-138 0-239 95-239 234V0H128" id="as"/><g id="x"><use transform="matrix(0.015190972222222224,0,0,0.015190972222222224,0,0)" xlink:href="#ap"/><use transform="matrix(0.015190972222222224,0,0,0.015190972222222224,22.771267361111114,0)" xlink:href="#aq"/><use transform="matrix(0.015190972222222224,0,0,0.015190972222222224,40.1953125,0)" xlink:href="#ar"/><use transform="matrix(0.015190972222222224,0,0,0.015190972222222224,58.728298611111114,0)" xlink:href="#as"/><use transform="matrix(0.015190972222222224,0,0,0.015190972222222224,71.39756944444444,0)" xlink:href="#aq"/></g><path d="M180 0v-1490h190v1322h690V0H180" id="at"/><g id="y"><use transform="matrix(0.015190972222222224,0,0,0.015190972222222224,0,0)" xlink:href="#M"/><use transform="matrix(0.015190972222222224,0,0,0.015190972222222224,21.464843750000004,0)" xlink:href="#at"/><use transform="matrix(0.015190972222222224,0,0,0.015190972222222224,39.05598958333334,0)" xlink:href="#af"/></g></defs></g></svg>